<svg width="26" height="12" viewBox="0 0 26 12" fill="none" xmlns="http://www.w3.org/2000/svg">
<path d="M2.53977 0.272727V9H0.724432V0.272727H2.53977ZM6.95135 9.12784C6.28942 9.12784 5.71697 8.98722 5.23402 8.70597C4.75391 8.42187 4.38317 8.02699 4.1218 7.52131C3.86044 7.01278 3.72976 6.4233 3.72976 5.75284C3.72976 5.0767 3.86044 4.4858 4.1218 3.98011C4.38317 3.47159 4.75391 3.0767 5.23402 2.79545C5.71697 2.51136 6.28942 2.36932 6.95135 2.36932C7.61328 2.36932 8.1843 2.51136 8.66442 2.79545C9.14737 3.0767 9.51953 3.47159 9.78089 3.98011C10.0423 4.4858 10.1729 5.0767 10.1729 5.75284C10.1729 6.4233 10.0423 7.01278 9.78089 7.52131C9.51953 8.02699 9.14737 8.42187 8.66442 8.70597C8.1843 8.98722 7.61328 9.12784 6.95135 9.12784ZM6.95987 7.72159C7.26101 7.72159 7.51243 7.63636 7.71413 7.46591C7.91584 7.29261 8.06783 7.05682 8.1701 6.75852C8.27521 6.46023 8.32777 6.12074 8.32777 5.74006C8.32777 5.35938 8.27521 5.01989 8.1701 4.72159C8.06783 4.4233 7.91584 4.1875 7.71413 4.0142C7.51243 3.84091 7.26101 3.75426 6.95987 3.75426C6.65589 3.75426 6.40021 3.84091 6.19283 4.0142C5.98828 4.1875 5.83345 4.4233 5.72834 4.72159C5.62607 5.01989 5.57493 5.35938 5.57493 5.74006C5.57493 6.12074 5.62607 6.46023 5.72834 6.75852C5.83345 7.05682 5.98828 7.29261 6.19283 7.46591C6.40021 7.63636 6.65589 7.72159 6.95987 7.72159ZM14.3022 11.5909C13.7141 11.5909 13.2099 11.5099 12.7894 11.348C12.3718 11.1889 12.0394 10.9716 11.7923 10.696C11.5451 10.4205 11.3846 10.1108 11.3107 9.76705L12.9897 9.54119C13.0408 9.67188 13.1218 9.79403 13.2326 9.90767C13.3434 10.0213 13.4897 10.1122 13.6715 10.1804C13.8562 10.2514 14.0806 10.2869 14.3448 10.2869C14.7397 10.2869 15.065 10.1903 15.3207 9.99716C15.5792 9.80682 15.7085 9.48722 15.7085 9.03835V7.84091H15.6317C15.5522 8.02273 15.4329 8.1946 15.2738 8.35653C15.1147 8.51847 14.9102 8.65057 14.6602 8.75284C14.4102 8.85511 14.1119 8.90625 13.7653 8.90625C13.2738 8.90625 12.8263 8.79261 12.4229 8.56534C12.0224 8.33523 11.7028 7.98437 11.4641 7.51278C11.2283 7.03835 11.1104 6.43892 11.1104 5.71449C11.1104 4.97301 11.2312 4.35369 11.4727 3.85653C11.7141 3.35937 12.0352 2.98722 12.4357 2.74006C12.8391 2.4929 13.2809 2.36932 13.761 2.36932C14.1275 2.36932 14.4343 2.43182 14.6815 2.55682C14.9286 2.67898 15.1275 2.83239 15.2781 3.01705C15.4315 3.19886 15.5494 3.37784 15.6317 3.55398H15.6999V2.45455H17.5025V9.06392C17.5025 9.62074 17.3661 10.0866 17.0934 10.4616C16.8207 10.8366 16.4428 11.1179 15.9599 11.3054C15.4798 11.4957 14.9272 11.5909 14.3022 11.5909ZM14.3406 7.54261C14.6332 7.54261 14.8803 7.47017 15.082 7.32528C15.2866 7.17756 15.4428 6.96733 15.5508 6.6946C15.6616 6.41903 15.717 6.08949 15.717 5.70597C15.717 5.32244 15.663 4.99006 15.555 4.70881C15.4471 4.42472 15.2908 4.20455 15.0863 4.0483C14.8817 3.89205 14.6332 3.81392 14.3406 3.81392C14.0423 3.81392 13.7908 3.89489 13.5863 4.05682C13.3817 4.21591 13.2269 4.4375 13.1218 4.72159C13.0167 5.00568 12.9641 5.33381 12.9641 5.70597C12.9641 6.08381 13.0167 6.41051 13.1218 6.68608C13.2298 6.95881 13.3846 7.17045 13.5863 7.32102C13.7908 7.46875 14.0423 7.54261 14.3406 7.54261ZM21.9045 9.12784C21.2425 9.12784 20.6701 8.98722 20.1871 8.70597C19.707 8.42187 19.3363 8.02699 19.0749 7.52131C18.8136 7.01278 18.6829 6.4233 18.6829 5.75284C18.6829 5.0767 18.8136 4.4858 19.0749 3.98011C19.3363 3.47159 19.707 3.0767 20.1871 2.79545C20.6701 2.51136 21.2425 2.36932 21.9045 2.36932C22.5664 2.36932 23.1374 2.51136 23.6175 2.79545C24.1005 3.0767 24.4727 3.47159 24.734 3.98011C24.9954 4.4858 25.1261 5.0767 25.1261 5.75284C25.1261 6.4233 24.9954 7.01278 24.734 7.52131C24.4727 8.02699 24.1005 8.42187 23.6175 8.70597C23.1374 8.98722 22.5664 9.12784 21.9045 9.12784ZM21.913 7.72159C22.2141 7.72159 22.4656 7.63636 22.6673 7.46591C22.869 7.29261 23.021 7.05682 23.1232 6.75852C23.2283 6.46023 23.2809 6.12074 23.2809 5.74006C23.2809 5.35938 23.2283 5.01989 23.1232 4.72159C23.021 4.4233 22.869 4.1875 22.6673 4.0142C22.4656 3.84091 22.2141 3.75426 21.913 3.75426C21.609 3.75426 21.3533 3.84091 21.146 4.0142C20.9414 4.1875 20.7866 4.4233 20.6815 4.72159C20.5792 5.01989 20.5281 5.35938 20.5281 5.74006C20.5281 6.12074 20.5792 6.46023 20.6815 6.75852C20.7866 7.05682 20.9414 7.29261 21.146 7.46591C21.3533 7.63636 21.609 7.72159 21.913 7.72159Z" fill="black"/>
</svg>
